{
  "accessors": [
    {
      "bufferView": 0,
      "byteOffset": 0,
      "componentType": 5123,
      "count": 2592,
      "type": "SCALAR",
      "max": [1747],
      "min": [0]
    },
    {
      "bufferView": 1,
      "byteOffset": 0,
      "componentType": 5126,
      "count": 1748,
      "type": "VEC3",
      "max": [1.0802940130233765, 4.7180352210998535, 3.5803580284118652],
      "min": [-1.0802940130233765, 0, -3.5803580284118652],
      "name": "POSITION"
    },
    {
      "bufferView": 1,
      "byteOffset": 12,
      "componentType": 5126,
      "count": 1748,
      "type": "VEC3",
      "max": [0.9998413920402527, 0.959637463092804, 1.0000044107437134],
      "min": [-0.9998413920402527, -1.0000044107437134, -0.991332471370697],
      "name": "NORMAL"
    },
    {
      "bufferView": 1,
      "byteOffset": 24,
      "componentType": 5126,
      "count": 1748,
      "type": "VEC2",
      "max": [0.9749850034713745, 1.988713026046753],
      "min": [0.014596999622881413, 1.0088380575180054],
      "name": "TEXCOORD_0"
    }
  ],
  "asset": { "generator": "Aspose.3D 24.9.1", "version": "2.0" },
  "buffers": [
    {
      "uri": "data:application/octet-stream;base64,",
      "byteLength": 61128
    }
  ],
  "bufferViews": [
    { "buffer": 0, "byteOffset": 0, "byteLength": 5184, "target": 34963 },
    {
      "buffer": 0,
      "byteOffset": 5188,
      "byteLength": 55936,
      "byteStride": 32,
      "target": 34962
    }
  ],
  "images": [
    {
      "uri": "data:image/png;base64,"
    }
  ],
  "materials": [
    {
      "name": "Capybara_mat",
      "pbrMetallicRoughness": {
        "baseColorFactor": [1, 1, 1, 1],
        "baseColorTexture": { "index": 0, "texCoord": 0 },
        "metallicFactor": 0,
        "roughnessFactor": 1
      },
      "emissiveFactor": [0, 0, 0],
      "alphaMode": "OPAQUE",
      "doubleSided": false
    }
  ],
  "meshes": [
    {
      "primitives": [
        {
          "attributes": { "POSITION": 1, "NORMAL": 2, "TEXCOORD_0": 3 },
          "indices": 0,
          "material": 0,
          "mode": 4
        }
      ]
    }
  ],
  "nodes": [{ "mesh": 0, "name": "Capybara_mesh" }],
  "samplers": [
    { "magFilter": 9729, "minFilter": 9986, "wrapS": 10497, "wrapT": 10497 }
  ],
  "scene": 0,
  "scenes": [{ "nodes": [0] }],
  "textures": [{ "sampler": 0, "source": 0, "name": "" }]
}
